# This file uses centimeters as units for non-parametric coordinates.

mtllib low poly plane.mtl
g default
v -6.000000 -0.000000 6.000000
v 6.000000 -0.000000 6.000000
v -6.000000 0.000000 -6.000000
v 6.000000 0.000000 -6.000000
vt 0.479908 0.479908
vt 0.520092 0.479908
vt 0.479908 0.520092
vt 0.520092 0.520092
vn 0.000000 1.000000 0.000000
vn 0.000000 1.000000 0.000000
vn 0.000000 1.000000 0.000000
vn 0.000000 1.000000 0.000000
s off
g pPlane1
usemtl initialShadingGroup
f 1/1/1 2/2/2 4/4/3 3/3/4
