# This file uses centimeters as units for non-parametric coordinates.

mtllib spike for unity.mtl
g default
v 0.309017 -0.153181 -0.951057
v -0.809017 -0.153181 -0.587785
v -0.809017 -0.153181 0.587785
v 0.309017 -0.153181 0.951057
v 1.000000 -0.153181 0.000000
v 0.154509 0.846819 -0.567268
v -0.404509 0.846819 -0.385632
v -0.404509 0.846819 0.202153
v 0.154508 0.846819 0.383789
v 0.500000 0.846819 -0.091740
v 0.000000 1.846819 0.000000
vt 0.577254 0.012236
vt 0.297746 0.103054
vt 0.297746 0.396946
vt 0.577254 0.487764
vt 0.750000 0.250000
vt 0.250000 0.500000
vt 0.350000 0.500000
vt 0.450000 0.500000
vt 0.550000 0.500000
vt 0.650000 0.500000
vt 0.750000 0.500000
vt 0.375000 0.750000
vt 0.425000 0.750000
vt 0.475000 0.750000
vt 0.525000 0.750000
vt 0.575000 0.750000
vt 0.625000 0.750000
vt 0.500000 1.000000
vn -0.294549 0.302405 -0.906528
vn -0.294549 0.302405 -0.906528
vn -0.294549 0.302405 -0.906528
vn -0.294549 0.302405 -0.906528
vn -0.927029 0.374991 -0.000000
vn -0.927029 0.374991 -0.000000
vn -0.927029 0.374991 -0.000000
vn -0.927028 0.374991 -0.000000
vn -0.277301 0.441287 0.853446
vn -0.277301 0.441287 0.853446
vn -0.277301 0.441287 0.853446
vn -0.277301 0.441287 0.853446
vn 0.735421 0.416729 0.534315
vn 0.735422 0.416729 0.534315
vn 0.735422 0.416729 0.534315
vn 0.735421 0.416729 0.534315
vn 0.763458 0.330843 -0.554685
vn 0.763458 0.330843 -0.554685
vn 0.763458 0.330843 -0.554685
vn 0.763458 0.330843 -0.554685
vn 0.000000 -1.000000 0.000000
vn 0.000000 -1.000000 0.000000
vn 0.000000 -1.000000 0.000000
vn 0.000000 -1.000000 0.000000
vn 0.000000 -1.000000 0.000000
vn -0.277301 0.441287 -0.853446
vn -0.277301 0.441287 -0.853446
vn -0.277301 0.441287 -0.853446
vn -0.927029 0.374991 -0.000000
vn -0.927029 0.374991 -0.000000
vn -0.927028 0.374991 -0.000000
vn -0.294549 0.302405 0.906528
vn -0.294549 0.302405 0.906528
vn -0.294549 0.302405 0.906528
vn 0.763458 0.330842 0.554685
vn 0.763458 0.330842 0.554685
vn 0.763458 0.330842 0.554685
vn 0.735422 0.416729 -0.534315
vn 0.735421 0.416729 -0.534315
vn 0.735422 0.416729 -0.534315
s off
g pCone1
usemtl initialShadingGroup
f 1/6/1 2/7/2 7/13/3 6/12/4
f 2/7/5 3/8/6 8/14/7 7/13/8
f 3/8/9 4/9/10 9/15/11 8/14/12
f 4/9/13 5/10/14 10/16/15 9/15/16
f 5/10/17 1/11/18 6/17/19 10/16/20
f 1/1/21 5/5/22 4/4/23 3/3/24 2/2/25
f 6/12/26 7/13/27 11/18/28
f 7/13/29 8/14/30 11/18/31
f 8/14/32 9/15/33 11/18/34
f 9/15/35 10/16/36 11/18/37
f 10/16/38 6/17/39 11/18/40
